<?xml version="1.0" standalone="no"?>
<!DOCTYPE svg PUBLIC "-//W3C//DTD SVG 20010904//EN" "http://www.w3.org/TR/2001/REC-SVG-20010904/DTD/svg10.dtd">
<!-- Created using Krita: https://krita.org -->
<svg xmlns="http://www.w3.org/2000/svg" 
    xmlns:xlink="http://www.w3.org/1999/xlink"
    xmlns:krita="http://krita.org/namespaces/svg/krita"
    xmlns:sodipodi="http://sodipodi.sourceforge.net/DTD/sodipodi-0.dtd"
    width="841.92pt"
    height="595.32pt"
    viewBox="0 0 841.92 595.32">
<defs/>
<path id="shape1" transform="matrix(0.588192796571853 0 0 0.589242705481514 393.926659069558 249.893928954882)" fill="#000000" fill-rule="evenodd" stroke="#000000" stroke-width="24" stroke-linecap="round" stroke-linejoin="round" d="M25.5648 2.1461C40.3661 -0.52462 51.5665 -0.902218 66.3678 2.15243C67.2515 133.204 76.2727 261.199 91.92 384.159C77.4428 393.933 62.2841 401.469 45.96 405.174C29.5519 402.157 14.5718 394.447 0 385.396C15.5563 257.625 24.8002 129.917 25.5648 2.1461Z"/><path id="shape02" transform="matrix(-0.898327410584412 0 0 0.680313796780961 273.851845602699 139.382934102113)" fill="#000000" fill-rule="evenodd" stroke="#000000" stroke-width="24" stroke-linecap="round" stroke-linejoin="round" d="M7.77273 330.508C32.4462 336.873 144.259 364.159 206.535 353.185C248.365 345.814 261.57 336.957 281.875 284.405C316.96 193.601 256.68 -5.07378 255.636 0.0990971C243.266 61.3999 296.178 247.577 232.794 254.53C178.502 260.486 201.433 89.533 187.777 90.5759C181.759 91.0355 209.978 277.483 155.752 279.217C103.772 283.165 124.646 140.501 118.849 141.376C113.212 142.227 132.631 288.384 82.0144 289.448C50.8434 291.884 55.6297 248.057 54.2299 243.234C50.9051 250.285 60.2426 301.256 24.8348 304.25C18.2229 304.226 6.955 301.268 0 302.302C1.34392 308.637 4.47611 318.665 7.77273 330.508Z"/><path id="shape0" transform="matrix(1.0000000065887 0 0 1.0000000065887 458.629463818365 385.571178851033)" fill="none" stroke="#000000" stroke-width="12" stroke-linecap="square" stroke-linejoin="miter" stroke-miterlimit="12.04" krita:marker-fill-method="auto" d="M4.01281 57.3109C63.0686 49.4889 75.1921 27.732 93.1684 0C65.5244 1.51964 45.3796 2.93371 0 6.02456"/><path id="shape01" transform="matrix(0.901575796415671 0 0 0.879415365520984 453.762269932261 267.202041484611)" fill="#000000" stroke="#000000" stroke-width="18" stroke-linecap="square" stroke-linejoin="miter" stroke-miterlimit="2.03999996185303" d="M0 0C0.964474 62.63 3.53667 93.4225 5.87608 119.304C56.1961 116.351 68.5675 115.274 108.164 113.164C88.6045 56.0014 68.7354 21.2256 0 0Z"/><path id="shape01" transform="matrix(-1.00000001178528 0 0 1.00000001178528 383.146363082239 385.624119081518)" fill="none" stroke="#000000" stroke-width="12" stroke-linecap="square" stroke-linejoin="miter" stroke-miterlimit="12" d="M4.01281 57.3109C63.0686 49.4889 75.1921 27.732 93.1684 0C65.5244 1.51964 45.3796 2.93371 0 6.02456"/><path id="shape011" transform="matrix(-0.901575801100784 0 0 0.879415370090938 388.013556993636 267.254981099981)" fill="#000000" stroke="#000000" stroke-width="18" stroke-linecap="square" stroke-linejoin="miter" stroke-miterlimit="2.03999996185303" d="M0 0C0.964474 62.63 3.53667 93.4225 5.87608 119.304C56.1961 116.351 68.5675 115.274 108.164 113.164C88.6045 56.0014 68.7354 21.2256 0 0Z"/><path id="shape021" transform="matrix(0.898327406651541 0 0 0.680313793802552 568.06363101887 139.384859582152)" fill="#000000" fill-rule="evenodd" stroke="#000000" stroke-width="24" stroke-linecap="round" stroke-linejoin="round" d="M7.77273 330.508C32.4462 336.873 144.259 364.159 206.535 353.185C248.365 345.814 261.57 336.957 281.875 284.405C316.96 193.601 256.68 -5.07378 255.636 0.0990971C243.266 61.3999 296.178 247.577 232.794 254.53C178.502 260.486 201.433 89.533 187.777 90.5759C181.759 91.0355 209.978 277.483 155.752 279.217C103.772 283.165 124.646 140.501 118.849 141.376C113.212 142.227 132.631 288.384 82.0144 289.448C50.8434 291.884 55.6297 248.057 54.2299 243.234C50.9051 250.285 60.2426 301.256 24.8348 304.25C18.2229 304.226 6.955 301.268 0 302.302C1.34392 308.637 4.47611 318.665 7.77273 330.508Z"/>
</svg>
